<?xml version="1.0" standalone="no"?>
<!DOCTYPE svg PUBLIC "-//W3C//DTD SVG 20010904//EN"
 "http://www.w3.org/TR/2001/REC-SVG-20010904/DTD/svg10.dtd">
<svg version="1.0" xmlns="http://www.w3.org/2000/svg"
 width="200.000000pt" height="200.000000pt" viewBox="0 0 200.000000 200.000000"
 preserveAspectRatio="xMidYMid meet">

<g transform="translate(0.000000,200.000000) scale(0.100000,-0.100000)"
fill="#000000" stroke="none">
<path d="M1002 971 l-21 -29 29 15 c30 14 37 27 22 37 -5 3 -18 -8 -30 -23z"/>
<path d="M1022 860 c1 -28 1 -50 -2 -50 -3 0 -4 -20 -2 -45 3 -30 9 -45 18
-45 8 0 14 8 14 18 0 10 6 24 12 30 10 10 18 6 39 -19 15 -19 32 -30 43 -28
16 4 14 9 -14 44 l-32 40 31 27 c45 40 7 37 -39 -3 l-35 -30 -3 56 c-2 42 -7
55 -18 55 -13 0 -15 -10 -12 -50z"/>
<path d="M830 763 c0 -76 3 -93 15 -93 10 0 15 10 15 29 0 16 6 31 12 33 10 4
10 10 0 32 -16 35 -1 66 33 66 51 0 53 -78 2 -81 -20 -1 -20 -2 -2 -7 l20 -5
-20 -8 c-17 -7 -16 -8 8 -8 58 -2 89 77 48 118 -15 15 -32 19 -75 18 l-56 -1
0 -93z"/>
</g>
</svg>
